<mxfile host="65bd71144e">
    <diagram id="x2Bg11CiK7bC27VfnOh8" name="Page-1">
        <mxGraphModel dx="1809" dy="968" grid="1" gridSize="10" guides="1" tooltips="1" connect="1" arrows="1" fold="1" page="1" pageScale="1" pageWidth="850" pageHeight="1100" math="0" shadow="0">
            <root>
                <mxCell id="0"/>
                <mxCell id="1" parent="0"/>
                <mxCell id="2" value="Open PGN" style="swimlane;whiteSpace=wrap;html=1;swimlaneFillColor=#fbf9f9;fillColor=#f5f5f5;strokeColor=#666666;gradientColor=#b3b3b3;" vertex="1" parent="1">
                    <mxGeometry x="10" y="60" width="1000" height="550" as="geometry"/>
                </mxCell>
                <mxCell id="30" value="" style="sketch=0;aspect=fixed;pointerEvents=1;shadow=0;dashed=0;html=1;strokeColor=#314354;labelPosition=center;verticalLabelPosition=bottom;verticalAlign=top;align=center;fillColor=#647687;shape=mxgraph.azure.computer;fontColor=#ffffff;" vertex="1" parent="2">
                    <mxGeometry x="160" y="240" width="100" height="90" as="geometry"/>
                </mxCell>
                <mxCell id="3" value="Board Buddy Front End" style="swimlane;whiteSpace=wrap;html=1;swimlaneFillColor=#FFFFFF;fillColor=#f5f5f5;gradientColor=#b3b3b3;strokeColor=#666666;" vertex="1" parent="2">
                    <mxGeometry x="360" y="40" width="610" height="490" as="geometry"/>
                </mxCell>
                <mxCell id="4" value="&lt;p style=&quot;margin:0px;margin-top:6px;text-align:center;&quot;&gt;&lt;b&gt;React Front End&lt;/b&gt;&lt;/p&gt;&lt;hr&gt;&lt;p style=&quot;text-align: center; margin: 0px 0px 0px 8px;&quot;&gt;&lt;span style=&quot;font-size: 19px;&quot;&gt;Open game(s) from&amp;nbsp;&lt;/span&gt;&lt;/p&gt;&lt;p style=&quot;text-align: center; margin: 0px 0px 0px 8px;&quot;&gt;&lt;span style=&quot;font-size: 19px;&quot;&gt;file(s)&lt;/span&gt;&lt;/p&gt;" style="align=left;overflow=fill;html=1;dropTarget=0;spacingTop=0;" vertex="1" parent="3">
                    <mxGeometry x="20" y="35" width="180" height="90" as="geometry"/>
                </mxCell>
                <mxCell id="5" value="" style="shape=component;jettyWidth=8;jettyHeight=4;fillColor=#ffe6cc;strokeColor=#d79b00;" vertex="1" parent="4">
                    <mxGeometry x="1" width="20" height="20" relative="1" as="geometry">
                        <mxPoint x="-24" y="4" as="offset"/>
                    </mxGeometry>
                </mxCell>
                <mxCell id="6" value="" style="ellipse;whiteSpace=wrap;html=1;align=center;aspect=fixed;resizable=0;points=[];outlineConnect=0;sketch=0;" vertex="1" parent="3">
                    <mxGeometry x="255" y="75" width="10" height="10" as="geometry"/>
                </mxCell>
                <mxCell id="7" value="" style="rounded=0;orthogonalLoop=1;jettySize=auto;html=1;endArrow=none;endFill=0;sketch=0;sourcePerimeterSpacing=0;targetPerimeterSpacing=0;exitX=1;exitY=0.5;exitDx=0;exitDy=0;" edge="1" parent="3" source="4" target="6">
                    <mxGeometry relative="1" as="geometry">
                        <mxPoint x="230" y="120" as="sourcePoint"/>
                    </mxGeometry>
                </mxCell>
                <mxCell id="8" value="Selected Files" style="edgeLabel;html=1;align=center;verticalAlign=middle;resizable=0;points=[];" vertex="1" connectable="0" parent="7">
                    <mxGeometry x="0.3126" y="2" relative="1" as="geometry">
                        <mxPoint x="29" y="-23" as="offset"/>
                    </mxGeometry>
                </mxCell>
                <mxCell id="9" value="" style="rounded=0;orthogonalLoop=1;jettySize=auto;html=1;endArrow=halfCircle;endFill=0;endSize=6;strokeWidth=1;sketch=0;" edge="1" parent="3" target="6">
                    <mxGeometry relative="1" as="geometry">
                        <mxPoint x="340" y="80" as="sourcePoint"/>
                        <mxPoint x="330" y="75" as="targetPoint"/>
                    </mxGeometry>
                </mxCell>
                <mxCell id="10" value="File IO Module" style="shape=module;align=left;spacingLeft=20;align=center;verticalAlign=middle;fillColor=#fff2cc;strokeColor=#d6b656;" vertex="1" parent="3">
                    <mxGeometry x="329" y="55" width="100" height="50" as="geometry"/>
                </mxCell>
                <mxCell id="11" value="Loads" style="endArrow=open;html=1;endSize=12;startArrow=diamondThin;startSize=14;startFill=0;edgeStyle=orthogonalEdgeStyle;entryX=1;entryY=0.5;entryDx=0;entryDy=0;exitX=0;exitY=0.5;exitDx=0;exitDy=0;" edge="1" parent="3" source="22" target="10">
                    <mxGeometry x="0.0989" y="10" relative="1" as="geometry">
                        <mxPoint x="140" y="370" as="sourcePoint"/>
                        <mxPoint x="300" y="370" as="targetPoint"/>
                        <mxPoint as="offset"/>
                    </mxGeometry>
                </mxCell>
                <mxCell id="12" value="0..n" style="edgeLabel;resizable=0;html=1;align=left;verticalAlign=top;" connectable="0" vertex="1" parent="11">
                    <mxGeometry x="-1" relative="1" as="geometry">
                        <mxPoint x="-20" y="-25" as="offset"/>
                    </mxGeometry>
                </mxCell>
                <mxCell id="13" value="&lt;p style=&quot;margin:0px;margin-top:6px;text-align:center;&quot;&gt;&lt;b&gt;React Front End&lt;/b&gt;&lt;/p&gt;&lt;hr&gt;&lt;p style=&quot;text-align: center; margin: 0px 0px 0px 8px;&quot;&gt;&lt;font style=&quot;font-size: 19px;&quot;&gt;Download game(s)&amp;nbsp;&lt;/font&gt;&lt;/p&gt;&lt;p style=&quot;text-align: center; margin: 0px 0px 0px 8px;&quot;&gt;&lt;font style=&quot;font-size: 19px;&quot;&gt;from URL&lt;/font&gt;&lt;br&gt;&lt;/p&gt;" style="align=left;overflow=fill;html=1;dropTarget=0;spacingTop=0;" vertex="1" parent="3">
                    <mxGeometry x="20" y="395" width="180" height="90" as="geometry"/>
                </mxCell>
                <mxCell id="14" value="" style="shape=component;jettyWidth=8;jettyHeight=4;fillColor=#ffe6cc;strokeColor=#d79b00;" vertex="1" parent="13">
                    <mxGeometry x="1" width="20" height="20" relative="1" as="geometry">
                        <mxPoint x="-24" y="4" as="offset"/>
                    </mxGeometry>
                </mxCell>
                <mxCell id="15" value="" style="rounded=0;orthogonalLoop=1;jettySize=auto;html=1;endArrow=none;endFill=0;sketch=0;sourcePerimeterSpacing=0;targetPerimeterSpacing=0;exitX=1;exitY=0.5;exitDx=0;exitDy=0;" edge="1" parent="3" source="13">
                    <mxGeometry relative="1" as="geometry">
                        <mxPoint x="60" y="430" as="sourcePoint"/>
                        <mxPoint x="255" y="440" as="targetPoint"/>
                    </mxGeometry>
                </mxCell>
                <mxCell id="16" value="Download Request" style="edgeLabel;html=1;align=center;verticalAlign=middle;resizable=0;points=[];" vertex="1" connectable="0" parent="15">
                    <mxGeometry x="0.3126" y="2" relative="1" as="geometry">
                        <mxPoint x="29" y="-23" as="offset"/>
                    </mxGeometry>
                </mxCell>
                <mxCell id="17" value="" style="rounded=0;orthogonalLoop=1;jettySize=auto;html=1;endArrow=halfCircle;endFill=0;endSize=6;strokeWidth=1;sketch=0;" edge="1" parent="3">
                    <mxGeometry relative="1" as="geometry">
                        <mxPoint x="340" y="440" as="sourcePoint"/>
                        <mxPoint x="265" y="440" as="targetPoint"/>
                    </mxGeometry>
                </mxCell>
                <mxCell id="18" value="File TransferÂ &#10;Module" style="shape=module;align=left;spacingLeft=20;align=center;verticalAlign=middle;fillColor=#fff2cc;strokeColor=#d6b656;" vertex="1" parent="3">
                    <mxGeometry x="330" y="415" width="100" height="50" as="geometry"/>
                </mxCell>
                <mxCell id="19" value="" style="ellipse;whiteSpace=wrap;html=1;align=center;aspect=fixed;resizable=0;points=[];outlineConnect=0;sketch=0;" vertex="1" parent="3">
                    <mxGeometry x="255" y="434" width="10" height="10" as="geometry"/>
                </mxCell>
                <mxCell id="20" value="" style="ellipse;shape=umlEntity;whiteSpace=wrap;html=1;fillColor=#fff2cc;strokeColor=#d6b656;" vertex="1" parent="3">
                    <mxGeometry x="520" y="400" width="80" height="80" as="geometry"/>
                </mxCell>
                <mxCell id="22" value="" style="ellipse;shape=umlEntity;whiteSpace=wrap;html=1;fillColor=#fff2cc;strokeColor=#d6b656;" vertex="1" parent="3">
                    <mxGeometry x="520" y="40" width="80" height="80" as="geometry"/>
                </mxCell>
                <mxCell id="39" value="" style="verticalLabelPosition=bottom;html=1;verticalAlign=top;strokeWidth=1;align=center;outlineConnect=0;dashed=0;outlineConnect=0;shape=mxgraph.aws3d.file;aspect=fixed;strokeColor=#292929;" vertex="1" parent="3">
                    <mxGeometry x="544.6" y="44.69999999999999" width="30.8" height="70.6" as="geometry"/>
                </mxCell>
                <mxCell id="41" value="&lt;p style=&quot;margin:0px;margin-top:6px;text-align:center;&quot;&gt;&lt;b&gt;React Front End&lt;/b&gt;&lt;/p&gt;&lt;hr&gt;&lt;p style=&quot;text-align: center; margin: 0px 0px 0px 8px;&quot;&gt;&lt;span style=&quot;font-size: 19px;&quot;&gt;Study Area(?)&lt;/span&gt;&lt;/p&gt;" style="align=left;overflow=fill;html=1;dropTarget=0;spacingTop=0;" vertex="1" parent="3">
                    <mxGeometry x="290" y="220" width="180" height="90" as="geometry"/>
                </mxCell>
                <mxCell id="42" value="" style="shape=component;jettyWidth=8;jettyHeight=4;fillColor=#ffe6cc;strokeColor=#d79b00;" vertex="1" parent="41">
                    <mxGeometry x="1" width="20" height="20" relative="1" as="geometry">
                        <mxPoint x="-24" y="4" as="offset"/>
                    </mxGeometry>
                </mxCell>
                <mxCell id="47" value="" style="outlineConnect=0;dashed=0;verticalLabelPosition=bottom;verticalAlign=top;align=center;html=1;shape=mxgraph.aws3.internet_2;fillColor=#D2D3D3;gradientColor=none;" vertex="1" parent="3">
                    <mxGeometry x="530.25" y="421.5" width="59.5" height="37" as="geometry"/>
                </mxCell>
                <mxCell id="48" value="Downloads" style="endArrow=open;html=1;endSize=12;startArrow=diamondThin;startSize=14;startFill=0;edgeStyle=orthogonalEdgeStyle;entryX=1;entryY=0.5;entryDx=0;entryDy=0;exitX=0;exitY=0.5;exitDx=0;exitDy=0;" edge="1" parent="3" source="20" target="18">
                    <mxGeometry x="-0.1111" y="10" relative="1" as="geometry">
                        <mxPoint x="520" y="400" as="sourcePoint"/>
                        <mxPoint x="430" y="400" as="targetPoint"/>
                        <mxPoint as="offset"/>
                    </mxGeometry>
                </mxCell>
                <mxCell id="49" value="0..n" style="edgeLabel;resizable=0;html=1;align=left;verticalAlign=top;" connectable="0" vertex="1" parent="48">
                    <mxGeometry x="-1" relative="1" as="geometry">
                        <mxPoint x="-20" y="-25" as="offset"/>
                    </mxGeometry>
                </mxCell>
                <mxCell id="28" value="Grand Master &lt;br&gt;Michael" style="shape=umlActor;verticalLabelPosition=bottom;verticalAlign=top;html=1;" vertex="1" parent="2">
                    <mxGeometry x="10" y="220" width="60" height="130" as="geometry"/>
                </mxCell>
                <mxCell id="29" value="&lt;font style=&quot;font-size: 11px;&quot;&gt;Board&lt;br&gt;Buddy&lt;/font&gt;" style="html=1;rounded=0;fillColor=#ffe6cc;strokeColor=#d79b00;" vertex="1" parent="2">
                    <mxGeometry x="160" y="240" width="100" height="70" as="geometry"/>
                </mxCell>
                <mxCell id="31" value="" style="edgeStyle=none;html=1;endArrow=block;endFill=0;endSize=12;verticalAlign=bottom;labelBackgroundColor=none;" edge="1" parent="2">
                    <mxGeometry width="160" relative="1" as="geometry">
                        <mxPoint x="70" y="284.58" as="sourcePoint"/>
                        <mxPoint x="150" y="284.58" as="targetPoint"/>
                    </mxGeometry>
                </mxCell>
                <mxCell id="33" value="" style="rounded=0;orthogonalLoop=1;jettySize=auto;html=1;endArrow=halfCircle;endFill=0;endSize=6;strokeWidth=1;sketch=0;exitX=0.5;exitY=0;exitDx=0;exitDy=0;exitPerimeter=0;" edge="1" parent="1" source="30">
                    <mxGeometry relative="1" as="geometry">
                        <mxPoint x="280" y="255" as="sourcePoint"/>
                        <mxPoint x="220" y="260" as="targetPoint"/>
                    </mxGeometry>
                </mxCell>
                <mxCell id="34" value="" style="html=1;verticalAlign=bottom;startArrow=circle;startFill=1;endArrow=open;startSize=6;endSize=8;entryX=0;entryY=0.5;entryDx=0;entryDy=0;" edge="1" parent="1" target="13">
                    <mxGeometry x="0.6883" width="80" relative="1" as="geometry">
                        <mxPoint x="220" y="260" as="sourcePoint"/>
                        <mxPoint x="310" y="525" as="targetPoint"/>
                        <Array as="points">
                            <mxPoint x="220" y="180"/>
                            <mxPoint x="300" y="180"/>
                            <mxPoint x="300" y="540"/>
                        </Array>
                        <mxPoint as="offset"/>
                    </mxGeometry>
                </mxCell>
                <mxCell id="36" value="" style="html=1;verticalAlign=bottom;startArrow=circle;startFill=1;endArrow=open;startSize=6;endSize=8;entryX=0;entryY=0.5;entryDx=0;entryDy=0;" edge="1" parent="1" target="4">
                    <mxGeometry width="80" relative="1" as="geometry">
                        <mxPoint x="220" y="260" as="sourcePoint"/>
                        <mxPoint x="310" y="300" as="targetPoint"/>
                        <Array as="points">
                            <mxPoint x="220" y="180"/>
                        </Array>
                    </mxGeometry>
                </mxCell>
                <mxCell id="44" value="" style="rounded=0;orthogonalLoop=1;jettySize=auto;html=1;endArrow=halfCircle;endFill=0;endSize=6;strokeWidth=1;sketch=0;exitX=0.5;exitY=0;exitDx=0;exitDy=0;" edge="1" parent="1" source="18">
                    <mxGeometry relative="1" as="geometry">
                        <mxPoint x="520" y="465" as="sourcePoint"/>
                        <mxPoint x="750" y="470" as="targetPoint"/>
                    </mxGeometry>
                </mxCell>
                <mxCell id="46" value="Launches" style="html=1;verticalAlign=bottom;startArrow=circle;startFill=1;endArrow=open;startSize=6;endSize=8;entryX=0.5;entryY=1;entryDx=0;entryDy=0;" edge="1" parent="1" target="41">
                    <mxGeometry y="-30" width="80" relative="1" as="geometry">
                        <mxPoint x="750" y="470" as="sourcePoint"/>
                        <mxPoint x="720" y="480" as="targetPoint"/>
                        <mxPoint as="offset"/>
                    </mxGeometry>
                </mxCell>
                <mxCell id="50" value="" style="rounded=0;orthogonalLoop=1;jettySize=auto;html=1;endArrow=halfCircle;endFill=0;endSize=6;strokeWidth=1;sketch=0;exitX=0.5;exitY=1;exitDx=0;exitDy=0;" edge="1" parent="1" source="10">
                    <mxGeometry relative="1" as="geometry">
                        <mxPoint x="760" y="525" as="sourcePoint"/>
                        <mxPoint x="750" y="270" as="targetPoint"/>
                    </mxGeometry>
                </mxCell>
                <mxCell id="51" value="Launches" style="html=1;verticalAlign=bottom;startArrow=circle;startFill=1;endArrow=open;startSize=6;endSize=8;entryX=0.5;entryY=0;entryDx=0;entryDy=0;" edge="1" parent="1">
                    <mxGeometry x="0.6" y="30" width="80" relative="1" as="geometry">
                        <mxPoint x="750" y="270" as="sourcePoint"/>
                        <mxPoint x="750.0000000000002" y="320" as="targetPoint"/>
                        <mxPoint as="offset"/>
                    </mxGeometry>
                </mxCell>
            </root>
        </mxGraphModel>
    </diagram>
</mxfile>